<?xml version="1.0" encoding="utf-8" ?>
<svg baseProfile="full" height="300" version="1.1" width="300" xmlns="http://www.w3.org/2000/svg" xmlns:ev="http://www.w3.org/2001/xml-events" xmlns:xlink="http://www.w3.org/1999/xlink"><defs /><polygon fill="#FFD100" points="216,81 211,86 211,87 209,89 209,90 207,92 207,94 206,95 206,96 205,97 205,99 204,100 204,105 203,106 203,111 205,111 207,113 208,113 209,114 210,114 211,115 212,115 213,116 214,116 216,118 217,118 219,120 220,120 222,122 223,122 226,125 226,124 227,123 227,122 229,120 229,116 230,115 232,117 232,126 231,127 231,131 230,132 230,134 229,135 229,136 228,137 228,139 225,142 225,143 223,145 223,148 224,148 225,149 227,149 228,150 229,150 230,151 242,151 242,135 241,134 241,131 240,130 240,123 239,122 239,121 238,120 238,117 237,116 237,114 236,113 236,111 235,110 235,108 233,106 233,104 231,102 231,100 229,98 229,97 228,96 228,95 226,93 226,92 224,90 224,89 221,86 221,85 217,81" /><polygon fill="#FFD100" points="237,57 237,87 238,88 238,92 239,93 239,98 240,99 240,102 241,103 241,105 242,106 242,110 243,111 243,112 244,113 244,116 245,117 245,118 246,119 246,120 247,121 247,122 248,123 248,124 249,125 249,126 250,127 250,128 251,129 251,130 253,132 253,133 254,134 254,135 256,137 256,138 258,140 258,141 262,145 262,146 265,146 267,144 268,144 269,143 270,143 273,140 274,140 277,137 277,136 280,133 280,132 282,130 282,129 281,129 280,128 277,128 276,127 271,127 270,126 269,126 268,125 267,125 266,124 265,124 264,123 263,123 262,122 261,122 259,120 258,120 252,114 252,113 249,110 249,109 247,107 247,104 248,103 249,103 255,109 256,109 258,111 259,111 260,112 260,113 263,113 263,110 264,109 264,107 265,106 265,104 266,103 266,100 267,99 267,98 268,97 268,94 269,93 269,92 270,91 270,89 271,88 271,86 272,85 272,84 273,83 273,81 275,79 275,77 276,76 276,75 277,74 277,73 275,71 275,70 271,66 270,66 268,64 267,64 265,62 264,62 263,61 261,61 260,60 259,60 258,59 254,59 253,58 250,58 249,57" /><polygon fill="#002147" points="278,299 280,299" /><polygon fill="#002147" points="272,298 274,298 275,299 275,298" /><polygon fill="#002147" points="24,298 27,298" /><polygon fill="#002147" points="278,297 279,297" /><polygon fill="#002147" points="19,297 19,299 21,299 20,299 19,298 20,297" /><polygon fill="#002147" points="282,296" /><polygon fill="#002147" points="295,287 295,288 294,289 293,289 292,290 292,291 290,293 289,293 289,294 288,295 287,295 286,296 285,295 284,295 285,296 283,298 282,298 283,298 284,297 285,297 286,296 287,296 293,290 294,290 294,289 296,287" /><polygon fill="#002147" points="0,280 0,282 1,283 1,284 2,285 2,286 3,287 3,288 5,290 6,290 9,293 9,294 10,294 13,297 15,297 16,298 17,298 16,297 16,296 15,297 14,297 13,296 14,295 13,296 12,296 10,294 11,293 5,287 4,288 2,286 3,285 2,285 1,284 2,283 1,283 0,282 1,281 2,281 1,281" /><polygon fill="#002147" points="299,279 299,280 298,281 297,280 297,281 298,282 298,283 297,284 296,283 297,284 296,285 295,285 297,285 297,284 298,283 298,282 299,281" /><polygon fill="#002147" points="1,277 1,278" /><polygon fill="#002147" points="298,275 298,277 299,277 299,276" /><polygon fill="#002147" points="158,204 157,205 155,205 150,210 150,213 149,214 149,215 150,216 150,219 152,221 152,222 153,223 154,223 155,224 157,224 158,225 161,225 162,224 164,224 165,223 166,223 168,221 168,220 169,219 169,218 170,217 171,218 171,219 176,224 178,224 179,225 183,225 184,224 186,224 190,220 190,218 191,217 191,212 190,211 190,210 189,209 189,208 187,206 186,206 185,205 183,205 182,204 180,204 179,205 176,205 172,209 172,210 170,212 169,211 169,210 168,209 168,208 166,206 165,206 164,205 161,205 160,204" /><polygon fill="#002147" points="226,150 226,151 227,151 228,152 231,152 230,152 229,151 228,151 227,150" /><polygon fill="#002147" points="200,127 199,128 199,204 212,204 212,128 211,127 210,128 202,128 201,127" /><polygon fill="#002147" points="122,127 121,128 110,128 109,129 105,129 104,130 101,130 100,131 98,131 97,132 96,132 95,133 94,133 93,134 91,134 89,136 87,136 85,138 84,138 82,140 81,140 78,143 77,143 68,152 68,153 64,157 64,158 63,159 63,160 62,161 62,162 60,164 60,165 59,166 59,167 58,168 58,169 57,170 57,172 56,173 56,174 55,175 55,178 54,179 54,182 53,183 53,188 52,189 52,203 53,204 114,204 115,205 115,225 128,225 128,205 130,203 135,203 136,202 138,202 139,201 142,201 143,200 145,200 146,199 147,199 148,198 150,198 151,197 152,197 153,196 154,196 155,195 156,195 158,193 159,193 161,191 162,191 164,189 165,189 177,177 177,176 179,174 179,173 181,171 181,170 182,169 182,168 183,167 183,166 184,165 184,164 185,163 185,162 186,161 186,160 187,159 187,157 188,156 188,154 189,153 189,150 190,149 190,143 191,142 191,128 190,127 179,127 178,128 177,128 177,129 178,130 178,136 177,137 177,145 176,146 176,149 175,150 175,152 174,153 174,154 173,155 173,157 172,158 172,159 171,160 171,161 170,162 170,163 167,166 167,167 164,170 164,171 158,177 157,177 154,180 153,180 151,182 150,182 148,184 147,184 146,185 144,185 143,186 142,186 141,187 138,187 137,188 136,188 135,189 131,189 130,190 128,188 128,128 127,127" /><polygon fill="#002147" points="33,127 32,128 31,128 31,204 44,204 44,128 43,127 42,128 41,127" /><polygon fill="#002147" points="245,121 245,122 246,123 246,124 247,124 248,125 248,126 249,127 248,128 249,128 250,129 249,128 249,127 248,126 248,125 247,124 247,123 246,122 246,121" /><polygon fill="#002147" points="239,118 239,120 240,121 240,122 241,123 241,130 242,131 242,134 243,135 243,151 242,152 233,152 242,152 243,151 243,141 244,140 244,138 243,137 243,129 243,130 242,131 241,130 241,122 239,120" /><polygon fill="#002147" points="230,116 230,120 228,122 228,123 227,124 227,125 226,126 223,123 222,123 220,121 219,121 217,119 216,119 214,117 214,118 215,119 217,119 218,120 217,121 218,121 219,122 220,122 222,124 223,123 225,125 225,126 227,126 227,125 228,124 229,125 229,133 227,135 227,139 226,140 225,139 225,140 224,141 224,142 223,143 222,143 222,146 221,147 221,149 222,149 223,150 224,150 224,149 223,149 222,148 222,145 224,143 224,142 227,139 227,137 228,136 228,135 229,134 229,132 230,131 230,127 231,126 231,117" /><polygon fill="#002147" points="210,115 210,116 212,116 211,116" /><polygon fill="#002147" points="253,114 258,119 259,119 261,121 262,121 263,122 264,122 265,123 266,123 267,124 268,124 269,125 270,125 271,126 276,126 277,127 280,127 281,128 282,128 283,129 283,130 281,132 281,133 278,136 278,137 274,141 273,141 270,144 269,144 268,145 267,145 265,147 262,147 261,146 261,145 257,141 257,140 255,138 255,137 253,135 253,134 252,133 252,132 251,131 250,131 251,132 251,133 252,133 253,134 252,135 253,136 254,136 255,137 255,139 257,141 257,142 259,144 260,144 261,145 260,146 261,147 266,147 266,146 267,145 268,145 269,144 270,145 273,142 274,142 276,140 276,139 277,138 278,138 280,136 280,134 281,133 282,133 284,131 283,130 283,128 282,128 280,126 272,126 271,125 271,124 267,124 265,122 264,122 263,121 262,121 260,119 258,119 257,118 258,117 255,114 254,115" /><polygon fill="#002147" points="238,111 237,112 237,113 238,114 238,116" /><polygon fill="#002147" points="266,104 266,106 265,107 265,108 266,108" /><polygon fill="#002147" points="248,104 248,107 250,109 250,110 252,112 253,112 252,111 253,110 255,110 256,111 257,111 259,113 259,114 260,115 261,114 262,115 263,114 264,114 264,110 264,113 263,114 260,114 259,113 259,112 258,112 256,110 255,110 249,104" /><polygon fill="#002147" points="232,101 232,102 234,104 234,106 236,108 236,110 236,106 235,106 234,105 234,103" /><polygon fill="#002147" points="203,101 203,102 202,103 202,109 201,110 202,111 202,112 205,112 206,113 205,114 208,114 207,114 205,112 203,112 202,111 202,106 203,105" /><polygon fill="#002147" points="238,99 238,101 239,102 239,105 240,105 241,106 241,112 242,112 243,113 243,117 244,118 244,119 245,119 244,118 244,117 243,116 243,113 242,112 242,111 241,110 241,106 240,105 240,103 239,102 239,99" /><polygon fill="#002147" points="236,87 236,88 237,89 237,94 238,95 238,97 238,93 237,92 237,88" /><polygon fill="#002147" points="273,84 273,85 272,86 272,88 271,89 271,91 270,92 270,93 269,94 269,97 268,98 268,99 267,100 267,101 269,99 269,94 270,93 271,93 271,89 273,87 273,85 274,84" /><polygon fill="#002147" points="216,80 214,82 213,81 214,82 209,87 209,88 208,89 208,90 205,93 206,94 205,95 204,95 204,98 203,99 204,99 204,97 205,96 205,95 206,94 206,92 208,90 208,89 210,87 210,86 216,80 217,80 222,85 222,86 225,89 225,90 227,92 227,93 229,95 229,96 230,97 230,98 231,99 231,97 230,97 229,96 229,95 228,94 229,93 228,94 227,93 227,91 225,89 225,88 224,87 224,86 223,86 222,85 222,84 221,84 217,80" /><polygon fill="#002147" points="276,71 278,73 278,74 277,75 277,76 276,77 276,79 274,81 274,82 276,80 276,77 277,76 278,76 278,73" /><polygon fill="#002147" points="259,59 260,59 261,60 263,60 264,61 265,61 267,63 268,63 270,65 271,65 275,69 276,69 273,66 272,66 271,65 270,65 268,63 267,63 266,62 266,61 265,61 264,60 261,60 260,59" /><polygon fill="#002147" points="249,56 250,57 253,57 254,58 257,58 254,58 253,57 253,56" /><polygon fill="#002147" points="236,56 235,57 234,57 234,59 235,59 236,60 236,69 235,70 234,70 234,74 235,75 235,76 236,77 236,84 236,57 237,56 247,56" /><polygon fill="#002147" points="0,28 0,271" /><polygon fill="#002147" points="298,22 298,23 299,22" /><polygon fill="#002147" points="0,21 1,21" /><polygon fill="#002147" points="299,18 299,20" /><polygon fill="#002147" points="297,18" /><polygon fill="#002147" points="298,15 297,16 298,16" /><polygon fill="#002147" points="1,15 1,16 0,17 0,19 0,17 1,16 2,17 2,18 2,17 1,16 2,15 3,15" /><polygon fill="#002147" points="5,12" /><polygon fill="#002147" points="289,4 289,7 293,11 294,10 297,13 296,14 297,13 295,11 295,10 294,9 293,9 290,6 290,5" /><polygon fill="#002147" points="283,3" /><polygon fill="#002147" points="11,3 9,5 9,6 8,7 7,7 3,11 3,12 2,13 3,13 3,11 5,9 6,9 10,5 11,6 12,5 11,6 10,5 10,4" /><polygon fill="#002147" points="13,2 13,3" /><polygon fill="#002147" points="283,1 284,1 285,2 286,2 287,3 286,2 285,2 284,1" /><polygon fill="#002147" points="276,1 277,1" /><polygon fill="#002147" points="15,1 16,1" /><polygon fill="#002147" points="279,0 280,0 281,1 280,2 281,1 281,0" /><polygon fill="#002147" points="22,0 22,1 23,1" /><polygon fill="#002147" points="18,0 18,2 18,1 19,0 20,0" /></svg>