<?xml version="1.0" ?>
<svg xmlns="http://www.w3.org/2000/svg" version="1.1" width="300" height="300" viewBox="0 0 300 300">
  <path d="M 145 51 L 144 52 L 143 52 L 142 53 L 141 53 L 141 54 L 138 57 L 137 57 L 137 58 L 134 61 L 133 61 L 133 62 L 130 65 L 129 65 L 129 66 L 126 69 L 125 69 L 125 70 L 122 73 L 121 73 L 121 74 L 118 77 L 117 77 L 117 78 L 114 81 L 113 81 L 113 82 L 110 85 L 109 85 L 109 86 L 106 89 L 105 89 L 105 90 L 102 93 L 101 93 L 101 94 L 98 97 L 97 97 L 97 98 L 94 101 L 93 101 L 93 102 L 90 105 L 89 105 L 89 106 L 86 109 L 85 109 L 85 110 L 82 113 L 81 113 L 81 114 L 78 117 L 77 117 L 77 118 L 74 121 L 73 121 L 73 122 L 70 125 L 69 125 L 69 126 L 66 129 L 65 129 L 65 130 L 62 133 L 61 133 L 61 134 L 58 137 L 57 137 L 57 138 L 54 141 L 53 141 L 53 142 L 51 144 L 51 150 L 52 151 L 58 151 L 59 150 L 59 149 L 61 147 L 62 147 L 63 146 L 63 145 L 65 143 L 66 143 L 67 142 L 68 143 L 68 240 L 69 241 L 69 243 L 70 243 L 71 244 L 71 246 L 72 247 L 74 247 L 75 248 L 126 248 L 127 247 L 128 247 L 129 246 L 130 246 L 130 245 L 131 244 L 131 243 L 132 242 L 132 176 L 133 175 L 166 175 L 167 176 L 167 242 L 168 243 L 168 244 L 169 245 L 169 246 L 170 246 L 171 247 L 172 247 L 173 248 L 224 248 L 225 247 L 227 247 L 228 246 L 228 244 L 229 243 L 230 243 L 230 241 L 231 240 L 231 143 L 232 142 L 233 143 L 234 143 L 236 145 L 236 146 L 237 147 L 238 147 L 240 149 L 240 150 L 241 151 L 247 151 L 248 150 L 248 144 L 246 142 L 246 141 L 245 141 L 242 138 L 242 137 L 241 137 L 238 134 L 238 133 L 237 133 L 234 130 L 234 129 L 233 129 L 230 126 L 230 125 L 229 125 L 226 122 L 226 121 L 225 121 L 222 118 L 222 117 L 221 117 L 218 114 L 218 113 L 217 113 L 214 110 L 214 109 L 213 109 L 210 106 L 210 105 L 209 105 L 206 102 L 206 101 L 205 101 L 202 98 L 202 97 L 201 97 L 198 94 L 198 93 L 197 93 L 194 90 L 194 89 L 193 89 L 190 86 L 190 85 L 189 85 L 186 82 L 186 81 L 185 81 L 182 78 L 182 77 L 181 77 L 178 74 L 178 73 L 177 73 L 174 70 L 174 69 L 173 69 L 170 66 L 170 65 L 169 65 L 166 62 L 166 61 L 165 61 L 162 58 L 162 57 L 161 57 L 158 54 L 158 53 L 157 53 L 156 52 L 155 52 L 154 51 Z" fill="currentColor"/>
</svg>
