<?xml version="1.0" ?>
<svg xmlns="http://www.w3.org/2000/svg" version="1.1" width="590" height="300" viewBox="0 0 590 300">
  <path d="M 249 176 L 249 241 L 250 241 L 251 242 L 251 243 L 282 243 L 282 242 L 283 241 L 284 241 L 284 240 L 285 239 L 286 239 L 286 203 L 285 203 L 284 202 L 284 201 L 279 201 L 278 200 L 278 199 L 273 199 L 272 198 L 272 197 L 271 196 L 271 195 L 268 195 L 267 194 L 267 193 L 266 193 L 265 192 L 265 191 L 264 191 L 263 190 L 263 189 L 262 189 L 261 188 L 261 186 L 260 186 L 259 185 L 259 184 L 257 184 L 256 183 L 256 182 L 255 182 L 254 181 L 254 180 L 253 180 L 252 179 L 252 178 L 251 178 L 250 177 L 250 176 Z" fill="currentColor"/>
  <path d="M 234 176 L 234 177 L 233 178 L 232 178 L 232 179 L 231 180 L 230 180 L 230 181 L 229 182 L 229 183 L 228 184 L 227 184 L 227 185 L 226 186 L 225 186 L 225 187 L 224 188 L 223 188 L 222 189 L 221 189 L 221 190 L 220 191 L 219 191 L 219 192 L 218 193 L 217 193 L 217 194 L 216 195 L 215 195 L 215 196 L 214 197 L 214 198 L 213 199 L 210 199 L 210 200 L 209 201 L 204 201 L 204 202 L 203 203 L 200 203 L 200 241 L 201 241 L 202 242 L 202 243 L 233 243 L 233 242 L 234 241 L 235 241 L 235 178 L 236 177 L 237 177 L 237 176 Z" fill="currentColor"/>
  <path d="M 332 163 L 332 164 L 331 165 L 330 165 L 330 166 L 329 167 L 328 167 L 328 168 L 327 169 L 326 169 L 326 170 L 325 171 L 324 171 L 324 172 L 323 173 L 322 173 L 321 174 L 320 174 L 320 175 L 319 176 L 318 176 L 318 177 L 317 178 L 317 179 L 316 180 L 315 180 L 315 181 L 314 182 L 313 182 L 313 183 L 312 184 L 311 184 L 311 185 L 310 186 L 309 186 L 309 187 L 308 188 L 307 188 L 306 189 L 305 189 L 305 190 L 304 191 L 303 191 L 303 192 L 302 193 L 302 194 L 301 195 L 300 195 L 300 196 L 299 197 L 298 197 L 298 241 L 299 241 L 300 242 L 300 243 L 331 243 L 331 242 L 332 241 L 332 240 L 333 239 L 334 239 L 334 163 Z" fill="currentColor"/>
  <path d="M 378 116 L 378 117 L 377 118 L 376 118 L 376 119 L 375 120 L 375 121 L 374 122 L 373 122 L 373 123 L 372 124 L 371 124 L 371 125 L 370 126 L 369 126 L 369 127 L 368 128 L 367 128 L 366 129 L 365 129 L 365 130 L 364 131 L 363 131 L 363 132 L 362 133 L 361 133 L 361 134 L 360 135 L 360 136 L 359 137 L 358 137 L 358 138 L 357 139 L 356 139 L 356 140 L 355 141 L 354 141 L 354 142 L 353 143 L 352 143 L 351 144 L 350 144 L 350 145 L 349 146 L 348 146 L 348 147 L 347 148 L 347 241 L 348 242 L 348 243 L 379 243 L 379 242 L 380 241 L 381 241 L 381 240 L 382 239 L 383 239 L 383 120 L 382 120 L 381 119 L 381 118 L 380 118 L 379 117 L 379 116 Z" fill="currentColor"/>
  <path d="M 384 56 L 384 57 L 383 58 L 354 58 L 354 59 L 353 60 L 350 60 L 350 63 L 349 64 L 348 64 L 348 66 L 349 66 L 350 67 L 350 70 L 351 70 L 352 71 L 352 72 L 353 72 L 354 73 L 354 74 L 355 74 L 356 75 L 356 76 L 357 76 L 358 77 L 358 78 L 359 78 L 360 79 L 360 80 L 361 81 L 360 82 L 358 82 L 358 85 L 357 86 L 356 86 L 356 87 L 355 88 L 354 88 L 354 89 L 353 90 L 352 90 L 352 91 L 351 92 L 350 92 L 350 93 L 349 94 L 347 94 L 347 95 L 346 96 L 345 96 L 345 97 L 344 98 L 343 98 L 343 100 L 342 101 L 341 101 L 341 102 L 340 103 L 339 103 L 339 104 L 338 105 L 337 105 L 337 106 L 336 107 L 335 107 L 335 108 L 334 109 L 332 109 L 332 110 L 331 111 L 330 111 L 330 112 L 329 113 L 328 113 L 328 115 L 327 116 L 326 116 L 326 117 L 325 118 L 324 118 L 324 119 L 323 120 L 322 120 L 322 121 L 321 122 L 320 122 L 320 123 L 319 124 L 317 124 L 317 125 L 316 126 L 315 126 L 315 127 L 314 128 L 313 128 L 313 130 L 312 131 L 311 131 L 311 132 L 310 133 L 309 133 L 309 134 L 308 135 L 307 135 L 307 136 L 306 137 L 305 137 L 305 138 L 304 139 L 302 139 L 302 140 L 301 141 L 300 141 L 300 142 L 299 143 L 298 143 L 298 145 L 297 146 L 296 146 L 296 147 L 295 148 L 294 148 L 294 149 L 293 150 L 292 150 L 292 151 L 291 152 L 290 152 L 290 153 L 289 154 L 287 154 L 287 155 L 286 156 L 283 156 L 282 155 L 282 154 L 281 154 L 280 153 L 280 152 L 279 152 L 278 151 L 278 150 L 277 150 L 276 149 L 276 148 L 275 148 L 274 147 L 274 146 L 273 146 L 272 145 L 272 144 L 271 143 L 270 143 L 269 142 L 269 141 L 268 141 L 267 140 L 267 139 L 266 139 L 265 138 L 265 137 L 264 137 L 263 136 L 263 135 L 262 135 L 261 134 L 261 133 L 260 133 L 259 132 L 259 131 L 258 131 L 257 130 L 257 129 L 256 128 L 255 128 L 254 127 L 254 126 L 253 126 L 252 125 L 252 124 L 251 124 L 250 123 L 250 122 L 249 122 L 248 121 L 248 120 L 238 120 L 238 121 L 237 122 L 234 122 L 234 123 L 233 124 L 232 124 L 232 125 L 231 126 L 230 126 L 230 127 L 228 129 L 227 129 L 227 130 L 226 131 L 225 131 L 225 132 L 224 133 L 223 133 L 223 134 L 222 135 L 221 135 L 221 136 L 220 137 L 219 137 L 219 138 L 218 139 L 217 139 L 217 140 L 216 141 L 215 141 L 215 142 L 213 144 L 212 144 L 212 145 L 211 146 L 210 146 L 210 147 L 209 148 L 208 148 L 208 149 L 207 150 L 206 150 L 206 151 L 205 152 L 204 152 L 204 153 L 203 154 L 202 154 L 202 155 L 201 156 L 200 156 L 200 157 L 198 159 L 197 159 L 197 160 L 196 161 L 195 161 L 195 162 L 194 163 L 193 163 L 193 164 L 192 165 L 191 165 L 191 166 L 190 167 L 189 167 L 189 168 L 188 169 L 187 169 L 187 172 L 186 173 L 185 173 L 185 181 L 186 181 L 187 182 L 187 185 L 188 185 L 189 186 L 189 187 L 190 187 L 191 188 L 194 188 L 195 189 L 195 190 L 203 190 L 203 189 L 204 188 L 205 188 L 206 187 L 207 187 L 207 186 L 208 185 L 209 185 L 209 184 L 210 183 L 211 183 L 211 182 L 212 181 L 213 181 L 213 180 L 214 179 L 214 178 L 215 177 L 216 177 L 216 176 L 217 175 L 218 175 L 218 174 L 219 173 L 220 173 L 221 172 L 222 172 L 222 171 L 223 170 L 224 170 L 224 169 L 225 168 L 226 168 L 226 167 L 227 166 L 228 166 L 228 165 L 229 164 L 229 163 L 230 162 L 231 162 L 231 161 L 232 160 L 233 160 L 233 159 L 234 158 L 235 158 L 236 157 L 237 157 L 237 156 L 238 155 L 239 155 L 239 154 L 240 153 L 241 153 L 241 152 L 242 151 L 243 152 L 243 153 L 244 153 L 245 154 L 245 155 L 246 155 L 247 156 L 247 157 L 248 157 L 249 158 L 250 158 L 251 159 L 251 160 L 252 160 L 253 161 L 253 162 L 254 162 L 255 163 L 255 164 L 256 164 L 257 165 L 257 166 L 258 167 L 258 168 L 259 168 L 260 169 L 260 170 L 261 170 L 262 171 L 262 172 L 263 172 L 264 173 L 265 173 L 266 174 L 266 175 L 267 175 L 268 176 L 268 177 L 269 177 L 270 178 L 270 179 L 271 179 L 272 180 L 272 181 L 273 182 L 273 183 L 274 183 L 275 184 L 275 185 L 276 185 L 277 186 L 277 187 L 280 187 L 281 188 L 289 188 L 290 187 L 291 187 L 291 186 L 292 185 L 293 185 L 293 184 L 294 183 L 295 183 L 295 182 L 296 181 L 297 181 L 297 180 L 298 179 L 299 179 L 299 178 L 300 177 L 302 177 L 302 176 L 303 175 L 304 175 L 304 174 L 305 173 L 306 173 L 306 171 L 307 170 L 308 170 L 308 169 L 309 168 L 310 168 L 310 167 L 311 166 L 312 166 L 312 165 L 313 164 L 314 164 L 314 163 L 315 162 L 317 162 L 317 161 L 318 160 L 319 160 L 319 159 L 320 158 L 321 158 L 321 156 L 322 155 L 323 155 L 323 154 L 324 153 L 325 153 L 325 152 L 326 151 L 327 151 L 327 150 L 328 149 L 329 149 L 329 148 L 330 147 L 332 147 L 332 146 L 333 145 L 334 145 L 334 144 L 335 143 L 336 143 L 336 141 L 337 140 L 338 140 L 338 139 L 339 138 L 340 138 L 340 137 L 341 136 L 342 136 L 342 135 L 343 134 L 344 134 L 344 133 L 345 132 L 347 132 L 347 131 L 348 130 L 349 130 L 349 129 L 350 128 L 351 128 L 352 127 L 353 127 L 353 124 L 354 123 L 355 123 L 355 122 L 356 121 L 357 121 L 357 120 L 358 119 L 360 119 L 360 118 L 361 117 L 362 117 L 362 116 L 363 115 L 364 115 L 364 114 L 365 113 L 366 113 L 367 112 L 368 112 L 368 109 L 369 108 L 370 108 L 370 107 L 371 106 L 372 106 L 372 105 L 373 104 L 375 104 L 375 103 L 376 102 L 377 102 L 377 101 L 378 100 L 381 100 L 382 101 L 382 102 L 383 102 L 384 103 L 384 104 L 385 104 L 386 105 L 386 106 L 387 106 L 388 107 L 388 108 L 389 108 L 390 109 L 390 110 L 391 111 L 391 112 L 396 112 L 396 111 L 397 110 L 400 110 L 400 107 L 401 106 L 402 106 L 402 90 L 403 89 L 404 89 L 404 60 L 403 60 L 402 59 L 402 58 L 399 58 L 398 57 L 398 56 Z" fill="currentColor"/>
</svg>
