<?xml version="1.0" ?>
<svg xmlns="http://www.w3.org/2000/svg" version="1.1" width="300" height="300" viewBox="0 0 300 300">
  <path d="M 1 293 L 1 294 L 0 295 L 0 296 L 1 297 L 1 298 L 3 298 L 4 299 L 5 298 L 6 298 L 6 295 L 5 295 L 4 294 L 4 293 Z" fill="currentColor"/>
  <path d="M 85 144 L 84 145 L 76 145 L 76 146 L 75 147 L 72 147 L 71 148 L 68 148 L 67 149 L 65 149 L 65 150 L 64 151 L 63 151 L 62 152 L 60 152 L 59 153 L 59 154 L 58 155 L 56 155 L 54 157 L 53 157 L 53 158 L 50 161 L 49 161 L 49 162 L 46 165 L 45 165 L 45 166 L 44 167 L 44 168 L 43 169 L 43 170 L 42 171 L 41 171 L 41 172 L 40 173 L 40 174 L 39 175 L 39 178 L 38 179 L 37 179 L 36 180 L 36 182 L 35 183 L 35 186 L 34 187 L 33 187 L 33 190 L 32 191 L 32 192 L 31 193 L 31 198 L 30 199 L 29 199 L 29 203 L 28 204 L 28 210 L 27 211 L 27 216 L 26 217 L 25 217 L 25 231 L 24 232 L 24 255 L 25 256 L 25 263 L 26 263 L 27 264 L 27 267 L 28 268 L 28 271 L 29 272 L 29 274 L 30 274 L 31 275 L 31 276 L 32 277 L 32 278 L 33 279 L 33 280 L 34 280 L 35 281 L 35 282 L 37 284 L 38 284 L 39 285 L 39 286 L 41 288 L 42 288 L 43 289 L 43 290 L 44 290 L 45 291 L 46 291 L 47 292 L 48 292 L 49 293 L 49 294 L 51 294 L 52 295 L 54 295 L 55 296 L 58 296 L 59 297 L 59 298 L 64 298 L 65 299 L 234 299 L 235 298 L 239 298 L 239 297 L 240 296 L 243 296 L 244 295 L 246 295 L 247 294 L 250 294 L 250 293 L 252 291 L 254 291 L 255 290 L 255 289 L 257 287 L 259 287 L 260 286 L 260 285 L 261 284 L 262 284 L 263 283 L 263 281 L 265 279 L 266 279 L 267 278 L 267 276 L 268 275 L 268 273 L 269 272 L 270 272 L 270 271 L 271 270 L 271 267 L 272 266 L 272 263 L 273 262 L 274 262 L 274 249 L 275 248 L 275 245 L 274 244 L 274 221 L 273 221 L 272 220 L 272 213 L 271 212 L 271 207 L 270 206 L 270 200 L 269 200 L 268 199 L 268 196 L 267 195 L 267 192 L 266 191 L 266 188 L 265 188 L 264 187 L 264 184 L 263 183 L 263 181 L 262 180 L 262 179 L 261 179 L 260 178 L 260 176 L 259 175 L 259 173 L 258 172 L 257 172 L 256 171 L 256 169 L 254 167 L 254 165 L 253 165 L 250 162 L 250 161 L 249 161 L 246 158 L 246 157 L 245 157 L 243 155 L 241 155 L 240 154 L 240 153 L 239 152 L 237 152 L 236 151 L 235 151 L 234 150 L 234 149 L 232 149 L 231 148 L 228 148 L 227 147 L 223 147 L 222 146 L 222 145 L 215 145 L 214 144 L 207 144 L 206 145 L 203 145 L 203 146 L 202 147 L 200 147 L 198 149 L 196 149 L 196 150 L 195 151 L 193 151 L 191 153 L 189 153 L 189 154 L 187 156 L 185 156 L 184 157 L 184 158 L 183 159 L 181 159 L 180 160 L 179 160 L 178 161 L 175 161 L 175 162 L 174 163 L 172 163 L 171 164 L 168 164 L 167 165 L 161 165 L 161 166 L 160 167 L 139 167 L 138 166 L 138 165 L 132 165 L 131 164 L 128 164 L 127 163 L 125 163 L 124 162 L 124 161 L 121 161 L 120 160 L 119 160 L 118 159 L 116 159 L 115 158 L 115 157 L 113 157 L 111 155 L 109 155 L 108 154 L 108 153 L 107 152 L 105 152 L 103 150 L 103 149 L 101 149 L 100 148 L 99 148 L 98 147 L 97 147 L 96 146 L 96 145 L 93 145 L 92 144 Z" fill="currentColor"/>
  <path d="M 135 0 L 134 1 L 128 1 L 128 2 L 127 3 L 124 3 L 123 4 L 120 4 L 119 5 L 117 5 L 117 6 L 116 7 L 115 7 L 114 8 L 112 8 L 111 9 L 111 10 L 110 11 L 108 11 L 106 13 L 104 13 L 104 14 L 102 16 L 101 16 L 100 17 L 100 18 L 98 20 L 96 20 L 95 21 L 95 23 L 94 24 L 93 24 L 92 25 L 92 26 L 90 28 L 89 28 L 88 29 L 88 31 L 86 33 L 85 33 L 85 35 L 84 36 L 84 38 L 83 39 L 83 40 L 82 41 L 81 41 L 81 43 L 80 44 L 80 46 L 79 47 L 79 50 L 78 51 L 77 51 L 77 56 L 76 57 L 76 63 L 75 64 L 75 79 L 76 80 L 76 87 L 77 88 L 77 92 L 78 92 L 79 93 L 79 96 L 80 97 L 80 100 L 81 101 L 81 103 L 82 103 L 83 104 L 83 106 L 85 108 L 85 110 L 86 110 L 87 111 L 87 112 L 88 113 L 88 114 L 89 115 L 90 115 L 91 116 L 91 118 L 93 120 L 94 120 L 95 121 L 95 122 L 97 124 L 98 124 L 99 125 L 99 126 L 101 128 L 103 128 L 104 129 L 104 130 L 105 131 L 106 131 L 107 132 L 108 132 L 109 133 L 109 134 L 111 134 L 113 136 L 115 136 L 116 137 L 116 138 L 118 138 L 119 139 L 122 139 L 123 140 L 126 140 L 127 141 L 127 142 L 130 142 L 131 143 L 139 143 L 140 144 L 154 144 L 155 143 L 163 143 L 164 142 L 168 142 L 168 141 L 169 140 L 172 140 L 173 139 L 175 139 L 176 138 L 179 138 L 179 137 L 180 136 L 182 136 L 184 134 L 186 134 L 186 133 L 188 131 L 190 131 L 191 130 L 191 129 L 193 127 L 194 127 L 195 126 L 196 126 L 196 125 L 197 124 L 198 124 L 200 122 L 200 121 L 201 120 L 202 120 L 202 119 L 203 118 L 203 117 L 205 115 L 206 115 L 207 114 L 207 112 L 209 110 L 210 110 L 210 108 L 211 107 L 211 105 L 212 104 L 212 103 L 213 102 L 214 102 L 214 100 L 215 99 L 215 96 L 216 95 L 216 92 L 217 91 L 218 91 L 218 87 L 219 86 L 219 75 L 220 74 L 220 69 L 219 68 L 219 57 L 218 56 L 218 52 L 217 52 L 216 51 L 216 48 L 215 47 L 215 44 L 214 43 L 214 41 L 213 41 L 212 40 L 212 39 L 211 38 L 211 36 L 210 35 L 209 35 L 208 34 L 208 32 L 206 30 L 206 28 L 205 28 L 203 26 L 203 25 L 202 24 L 201 24 L 199 22 L 199 21 L 198 20 L 197 20 L 195 18 L 195 17 L 194 16 L 193 16 L 191 14 L 191 13 L 189 13 L 187 11 L 185 11 L 184 10 L 184 9 L 183 8 L 181 8 L 180 7 L 179 7 L 178 6 L 178 5 L 175 5 L 174 4 L 172 4 L 171 3 L 168 3 L 167 2 L 167 1 L 161 1 L 160 0 Z" fill="currentColor"/>
</svg>
