<?xml version="1.0" ?>
<svg xmlns="http://www.w3.org/2000/svg" version="1.1" width="320" height="300" viewBox="0 0 320 300">
  <path d="M 159 24 L 158 25 L 154 25 L 153 26 L 153 28 L 152 29 L 152 31 L 151 32 L 150 32 L 150 34 L 149 35 L 149 36 L 148 37 L 148 39 L 147 40 L 146 40 L 146 43 L 145 44 L 145 45 L 144 46 L 143 46 L 143 47 L 142 48 L 142 52 L 140 54 L 139 54 L 139 57 L 138 58 L 138 60 L 137 61 L 137 63 L 136 64 L 135 64 L 135 65 L 134 66 L 134 68 L 133 69 L 132 69 L 132 71 L 131 72 L 131 74 L 130 75 L 130 76 L 129 77 L 128 77 L 128 79 L 127 80 L 127 82 L 126 83 L 126 85 L 125 86 L 124 86 L 124 87 L 123 88 L 123 90 L 122 91 L 121 91 L 121 93 L 120 94 L 120 96 L 119 97 L 119 99 L 118 100 L 117 100 L 116 101 L 108 101 L 107 102 L 101 102 L 101 103 L 100 104 L 88 104 L 87 105 L 80 105 L 79 106 L 72 106 L 72 107 L 71 108 L 61 108 L 60 109 L 54 109 L 54 110 L 53 111 L 41 111 L 40 112 L 37 112 L 36 113 L 34 113 L 34 114 L 33 115 L 33 117 L 32 118 L 32 121 L 33 122 L 33 123 L 34 124 L 34 125 L 35 125 L 37 127 L 37 128 L 38 128 L 41 131 L 41 132 L 42 132 L 44 134 L 45 134 L 46 135 L 46 136 L 48 138 L 48 139 L 49 139 L 51 141 L 53 141 L 54 142 L 54 144 L 56 144 L 57 145 L 57 146 L 58 147 L 58 148 L 60 148 L 61 149 L 61 150 L 63 152 L 64 152 L 65 153 L 65 154 L 66 155 L 67 155 L 68 156 L 68 157 L 70 159 L 71 159 L 72 160 L 72 161 L 74 163 L 74 164 L 75 164 L 77 166 L 78 166 L 79 167 L 79 168 L 81 170 L 82 170 L 83 171 L 83 172 L 84 173 L 85 173 L 86 174 L 86 175 L 88 177 L 89 177 L 90 178 L 90 179 L 92 181 L 91 182 L 91 188 L 90 189 L 90 197 L 89 198 L 88 198 L 88 206 L 87 207 L 87 212 L 86 213 L 86 223 L 85 224 L 84 224 L 84 230 L 83 231 L 83 237 L 82 238 L 81 238 L 81 246 L 80 247 L 80 253 L 79 254 L 79 264 L 80 265 L 80 266 L 81 267 L 85 267 L 86 268 L 86 269 L 86 268 L 87 267 L 90 267 L 91 266 L 93 266 L 93 265 L 95 263 L 98 263 L 99 262 L 100 262 L 100 261 L 101 260 L 102 260 L 103 259 L 105 259 L 106 258 L 108 258 L 108 257 L 109 256 L 111 256 L 112 255 L 113 255 L 113 254 L 114 253 L 116 253 L 117 252 L 119 252 L 120 251 L 120 250 L 121 249 L 123 249 L 124 248 L 126 248 L 126 247 L 127 246 L 129 246 L 130 245 L 131 245 L 132 244 L 134 244 L 134 243 L 135 242 L 137 242 L 138 241 L 140 241 L 141 240 L 141 239 L 142 238 L 145 238 L 146 237 L 147 237 L 147 236 L 148 235 L 149 235 L 150 234 L 152 234 L 153 233 L 155 233 L 155 232 L 156 231 L 158 231 L 159 230 L 160 230 L 161 231 L 165 231 L 166 232 L 166 233 L 167 234 L 170 234 L 172 236 L 172 237 L 174 237 L 175 238 L 177 238 L 178 239 L 178 240 L 180 240 L 181 241 L 182 241 L 183 242 L 185 242 L 186 243 L 186 244 L 187 244 L 188 245 L 191 245 L 193 247 L 193 248 L 195 248 L 196 249 L 198 249 L 199 250 L 199 251 L 200 251 L 201 252 L 203 252 L 204 253 L 206 253 L 207 254 L 207 255 L 209 255 L 210 256 L 211 256 L 212 257 L 212 258 L 214 258 L 215 259 L 216 259 L 217 260 L 220 260 L 221 261 L 221 262 L 222 263 L 224 263 L 225 264 L 227 264 L 228 265 L 228 266 L 229 266 L 230 267 L 238 267 L 239 266 L 239 265 L 240 264 L 240 263 L 241 262 L 242 262 L 242 260 L 241 260 L 240 259 L 240 249 L 239 248 L 239 243 L 238 242 L 238 232 L 237 232 L 236 231 L 236 225 L 235 224 L 235 220 L 234 220 L 233 219 L 233 209 L 232 208 L 232 203 L 231 202 L 231 196 L 230 196 L 229 195 L 230 194 L 231 194 L 230 194 L 229 193 L 229 185 L 228 184 L 228 180 L 229 179 L 229 178 L 230 177 L 231 177 L 233 175 L 233 174 L 234 173 L 235 173 L 236 172 L 236 171 L 237 170 L 238 170 L 240 168 L 240 167 L 241 166 L 242 166 L 244 164 L 245 164 L 245 163 L 247 161 L 247 160 L 248 159 L 249 159 L 251 157 L 251 156 L 252 155 L 253 155 L 254 154 L 254 153 L 255 152 L 256 152 L 258 150 L 258 149 L 259 148 L 260 148 L 262 146 L 262 145 L 263 144 L 264 144 L 265 143 L 265 142 L 266 141 L 267 141 L 269 139 L 269 138 L 270 137 L 272 137 L 272 135 L 274 133 L 275 133 L 276 132 L 276 131 L 277 130 L 279 130 L 279 129 L 280 128 L 282 128 L 282 127 L 283 126 L 283 124 L 284 123 L 285 123 L 287 121 L 287 116 L 285 114 L 285 113 L 284 113 L 282 111 L 272 111 L 271 110 L 271 109 L 263 109 L 262 108 L 252 108 L 251 107 L 251 106 L 243 106 L 242 105 L 234 105 L 233 104 L 222 104 L 221 103 L 221 102 L 214 102 L 213 101 L 206 101 L 205 100 L 201 100 L 200 99 L 200 97 L 199 96 L 199 94 L 198 93 L 198 91 L 197 91 L 196 90 L 196 88 L 195 87 L 195 86 L 194 86 L 193 85 L 193 83 L 192 82 L 192 80 L 191 79 L 191 77 L 190 77 L 189 76 L 189 75 L 188 74 L 188 72 L 187 71 L 187 69 L 186 69 L 185 68 L 185 66 L 184 65 L 184 64 L 183 64 L 182 63 L 182 61 L 181 60 L 181 58 L 180 57 L 180 55 L 179 55 L 178 54 L 178 53 L 177 52 L 177 50 L 176 49 L 176 47 L 175 47 L 174 46 L 174 44 L 173 43 L 173 41 L 172 41 L 171 40 L 171 39 L 170 38 L 170 36 L 169 35 L 169 33 L 168 33 L 167 32 L 167 30 L 166 29 L 166 28 L 165 27 L 165 26 L 164 26 L 163 25 L 161 25 L 160 24 Z" fill="currentColor"/>
</svg>
